<svg id="Livello_1" data-name="Livello 1" xmlns="http://www.w3.org/2000/svg" viewBox="0 0 631 434"><defs><style>.cls-1{fill:#fff;}.cls-2{fill:#d9ebf9;}.cls-3{fill:#3db2e2;}</style></defs><title>icon-1</title><rect class="cls-1" width="631" height="434"/><path class="cls-2" d="M326.08,108.05a14.61,14.61,0,0,1-26.8-8.1,16,16,0,0,1,2.4-8.2A142.14,142.14,0,0,1,326.08,108.05Z"/><path class="cls-2" d="M313.88,85.25a14.72,14.72,0,0,1,14.7,14.7h0a15.35,15.35,0,0,1-2.4,8.1,152.54,152.54,0,0,0-24.4-16.3A14.26,14.26,0,0,1,313.88,85.25Z"/><path class="cls-2" d="M169.68,342.65a138.37,138.37,0,0,1-24.4-16.3,14.65,14.65,0,0,1,26.9,8.1A15.18,15.18,0,0,1,169.68,342.65Z"/><path class="cls-2" d="M145.28,326.35a152.54,152.54,0,0,0,24.4,16.3,14.7,14.7,0,0,1-26.9-8.1A15.52,15.52,0,0,1,145.28,326.35Z"/><path class="cls-2" d="M283.58,168.35a68.22,68.22,0,1,0,20.6,48.9A68.27,68.27,0,0,0,283.58,168.35Z"/><path class="cls-3" d="M309,217.15a73.3,73.3,0,1,0-73.3,73.3h0A73.28,73.28,0,0,0,309,217.15Zm-68.4,34.5a66.76,66.76,0,0,1,18.2,4.1c-4.6,12.7-11.3,21.1-18.2,23.9v-28Zm0-9.8v-19.8h24.3a112,112,0,0,1-3.3,24.4,71.78,71.78,0,0,0-21-4.6h0Zm0-29.5v-19.8a71.78,71.78,0,0,0,21-4.6,124.63,124.63,0,0,1,3.3,24.3l-24.3.1h0Zm0-29.6v-28.1c6.9,2.8,13.6,11.2,18.2,23.9a63.42,63.42,0,0,1-18.2,4.2h0Zm18.5-24.6a65.36,65.36,0,0,1,17.1,10.1,73.44,73.44,0,0,1-8.6,6,70.9,70.9,0,0,0-8.5-16.1h0Zm-28.3-3.4v28a66.76,66.76,0,0,1-18.2-4.1c4.6-12.7,11.3-21.2,18.2-23.9h0Zm-27,19.6a73.44,73.44,0,0,1-8.6-6,60.3,60.3,0,0,1,17.1-10.1,72.82,72.82,0,0,0-8.5,16.1h0Zm27,18.2v19.8h-24.3a110.24,110.24,0,0,1,3.3-24.3,75,75,0,0,0,21,4.5h0Zm0,29.5v19.8a71.78,71.78,0,0,0-21,4.6,124.63,124.63,0,0,1-3.3-24.3l24.3-.1h0Zm0,29.6v28.1c-6.9-2.8-13.6-11.2-18.2-23.9a57.42,57.42,0,0,1,18.2-4.2h0Zm-18.5,24.5a65.36,65.36,0,0,1-17.1-10.1,73.44,73.44,0,0,1,8.6-6A75.11,75.11,0,0,0,212.28,276.15Zm55.3-16.1a73.44,73.44,0,0,1,8.6,6,60.3,60.3,0,0,1-17.1,10.1,75.11,75.11,0,0,0,8.5-16.1h0Zm3-9.5a130.67,130.67,0,0,0,4.1-28.5H299a63.08,63.08,0,0,1-15.8,37.1,71.92,71.92,0,0,0-12.6-8.6h0Zm28.4-38.3h-24.3a131.4,131.4,0,0,0-4-28.5,78.4,78.4,0,0,0,12.6-8.7,64.42,64.42,0,0,1,15.7,37.2h0Zm-110.8-37.1a78.4,78.4,0,0,0,12.6,8.7,129.78,129.78,0,0,0-4.1,28.4h-24.3A63.35,63.35,0,0,1,188.18,175.15Zm-15.8,46.9h24.3a125.68,125.68,0,0,0,4.1,28.5,78.4,78.4,0,0,0-12.6,8.7A63.63,63.63,0,0,1,172.38,222.05Z"/><path class="cls-3" d="M138,168.35a48.9,48.9,0,1,0-48.9-48.9,48.91,48.91,0,0,0,48.9,48.9h0Zm0-88a39.1,39.1,0,1,1-39.1,39.1h0A39.09,39.09,0,0,1,138,80.35Z"/><path class="cls-3" d="M138,134.15a4.91,4.91,0,0,1-4.9-4.9h-9.8a14.64,14.64,0,0,0,9.8,13.8v5.8h9.8v-5.8a14.6,14.6,0,0,0-4.9-28.4,4.9,4.9,0,1,1,4.9-4.9h9.8a14.64,14.64,0,0,0-9.8-13.8v-5.8h-9.8V96a14.6,14.6,0,0,0,4.9,28.4,4.91,4.91,0,0,1,.6,9.8H138Z"/><path class="cls-3" d="M333.38,266.05a48.9,48.9,0,1,0,48.9,48.9,48.91,48.91,0,0,0-48.9-48.9h0Zm0,87.9a39.1,39.1,0,1,1,39.1-39.1h0a39.09,39.09,0,0,1-39.1,39.1h0Z"/><path class="cls-3" d="M333.38,300.25a4.91,4.91,0,0,1,4.9,4.9h9.8a14.64,14.64,0,0,0-9.8-13.8v-5.8h-9.8v5.8a14.6,14.6,0,0,0,4.9,28.4,4.9,4.9,0,1,1-4.9,4.9h-9.8a14.64,14.64,0,0,0,9.8,13.8v5.8h9.8v-5.8a14.6,14.6,0,0,0-4.9-28.4A4.9,4.9,0,0,1,333.38,300.25Z"/><path class="cls-3" d="M235.68,80.35a135.23,135.23,0,0,1,59.6,13.7,19.42,19.42,0,0,0,31.1,20.7,137.2,137.2,0,0,1,37.8,149.6l9.2,3.4a146.62,146.62,0,0,0-41.2-160.9,19.45,19.45,0,0,0-31.6-21,146.39,146.39,0,0,0-115.3-6.2l3.4,9.2A131.69,131.69,0,0,1,235.68,80.35Zm78.2,9.8a9.8,9.8,0,1,1-9.8,9.8h0a9.82,9.82,0,0,1,9.8-9.8h0Z"/><path class="cls-3" d="M235.68,354a133.56,133.56,0,0,1-59.6-13.7,19.42,19.42,0,0,0-31.1-20.7,137.09,137.09,0,0,1-36.7-152.5l-9-3.6a146.58,146.58,0,0,0,40.1,164,19.47,19.47,0,0,0,31.6,21.1,146.3,146.3,0,0,0,118.4,5l-3.6-9.1A132.37,132.37,0,0,1,235.68,354Zm-78.2-9.7a9.8,9.8,0,1,1,9.8-9.8,9.82,9.82,0,0,1-9.8,9.8h0Z"/><path class="cls-3" d="M136.28,176.25A107.63,107.63,0,0,0,256,322.85l-1.8-9.6A97.78,97.78,0,0,1,145.38,180Z"/><path class="cls-3" d="M266.48,320.15c3.3-1,6.6-2.2,9.9-3.5l-3.7-9a87,87,0,0,1-9,3.2Z"/><path class="cls-3" d="M320.18,206l14.7,14.7a4.89,4.89,0,0,0,6.9,0l14.7-14.7-6.9-6.9-6.9,6.9a107.5,107.5,0,0,0-118.2-95.7,108.91,108.91,0,0,0-29.7,7.5l3.7,9A97.76,97.76,0,0,1,326.08,180a99.65,99.65,0,0,1,6.5,24.5l-5.4-5.4Z"/></svg>