<?xml version="1.0" encoding="utf-8"?>
<!-- Generator: Adobe Illustrator 25.0.1, SVG Export Plug-In . SVG Version: 6.00 Build 0)  -->
<svg version="1.1" id="Capa_1" xmlns="http://www.w3.org/2000/svg" xmlns:xlink="http://www.w3.org/1999/xlink" x="0px" y="0px"
	 viewBox="0 0 212.22 103.68" style="enable-background:new 0 0 212.22 103.68;" xml:space="preserve">
<style type="text/css">
	.st0{fill:url(#SVGID_1_);}
	.st1{fill:url(#SVGID_2_);}
	.st2{fill:url(#SVGID_3_);}
	.st3{fill:url(#SVGID_4_);}
	.st4{fill:url(#SVGID_5_);}
	.st5{fill:url(#SVGID_6_);}
</style>
<g>
	<linearGradient id="SVGID_1_" gradientUnits="userSpaceOnUse" x1="54.5634" y1="29.498" x2="156.1317" y2="166.7233">
		<stop  offset="0" style="stop-color:#F299C1"/>
		<stop  offset="0.0774" style="stop-color:#F090C5"/>
		<stop  offset="0.2061" style="stop-color:#EB76D0"/>
		<stop  offset="0.3703" style="stop-color:#E24DE1"/>
		<stop  offset="0.5617" style="stop-color:#D714F9"/>
		<stop  offset="0.6045" style="stop-color:#D406FF"/>
		<stop  offset="0.9851" style="stop-color:#73236B"/>
	</linearGradient>
	<path class="st0" d="M90.16,14.04c-1.5,0.37-3.29,0.55-5.38,0.51c-2.09-0.03-4.32-0.08-6.69-0.14c-2.37-0.06-4.85-0.09-7.44-0.09
		c-2.59,0-5.19,0.19-7.81,0.56c-3.49,4.68-6.88,9.87-10.15,15.58c-3.27,5.71-6.13,11.6-8.56,17.68c-2.43,6.08-4.26,12.21-5.47,18.39
		c-1.22,6.18-1.48,12.1-0.8,17.78c-2.18-0.19-4.34-0.5-6.46-0.94c-2.12-0.44-4.01-1.09-5.66-1.97c-1.65-0.87-2.98-2.03-3.98-3.46
		c-1-1.43-1.5-3.28-1.5-5.52c0.06-2,0.45-4.47,1.17-7.44c0.72-2.96,1.67-6.18,2.85-9.64c1.18-3.46,2.57-7.06,4.16-10.81
		c1.59-3.74,3.27-7.41,5.05-10.99c1.78-3.59,3.63-6.99,5.57-10.2c1.93-3.21,3.8-6.04,5.61-8.47c-4.18,0.13-8.03,0.66-11.56,1.59
		c-3.52,0.94-6.6,2.25-9.22,3.93s-4.69,3.74-6.22,6.18c-1.53,2.43-2.42,5.24-2.67,8.42c-1.31,0-2.54-0.01-3.7-0.05
		c-1.16-0.03-2.17-0.11-3.04-0.23c-3.43-0.69-5.8-2.39-7.11-5.1c-1.31-2.71-1.53-5.79-0.65-9.22c0.94-3.56,2.79-6.49,5.57-8.8
		C8.87,9.3,12.3,7.42,16.38,5.99c4.09-1.43,8.66-2.48,13.71-3.13c5.05-0.65,10.28-1.09,15.67-1.31c5.4-0.22,10.84-0.3,16.33-0.23
		c5.49,0.06,10.7,0.11,15.63,0.14c4.93,0.03,9.45-0.03,13.57-0.19C95.4,1.11,98.77,0.69,101.39,0L90.16,14.04z"/>
	<linearGradient id="SVGID_2_" gradientUnits="userSpaceOnUse" x1="55.7228" y1="28.6399" x2="157.2911" y2="165.8652">
		<stop  offset="0" style="stop-color:#F299C1"/>
		<stop  offset="0.0774" style="stop-color:#F090C5"/>
		<stop  offset="0.2061" style="stop-color:#EB76D0"/>
		<stop  offset="0.3703" style="stop-color:#E24DE1"/>
		<stop  offset="0.5617" style="stop-color:#D714F9"/>
		<stop  offset="0.6045" style="stop-color:#D406FF"/>
		<stop  offset="0.9851" style="stop-color:#73236B"/>
	</linearGradient>
	<path class="st1" d="M62.33,33.87c1.03-0.5,2.23-0.87,3.6-1.12c1.37-0.25,2.81-0.37,4.3-0.37c1.5,0,2.81,0.17,3.93,0.51
		c1.12,0.34,1.97,0.84,2.53,1.5c0.56,0.65,0.59,1.48,0.09,2.48c-0.62,1.06-1.48,2.57-2.57,4.54c-1.09,1.97-2.2,4.12-3.32,6.46
		c-1.12,2.34-2.12,4.73-2.99,7.16c-0.87,2.43-1.4,4.62-1.59,6.55c-0.44,3.18-0.3,4.94,0.42,5.29c0.72,0.34,1.89-0.98,3.51-3.98
		c2.56-4.43,4.79-8.89,6.69-13.38c1.9-4.49,3.94-8.92,6.13-13.29c0.31-0.75,0.98-1.36,2.01-1.82c1.03-0.47,2.18-0.83,3.46-1.08
		c1.28-0.25,2.6-0.36,3.98-0.33c1.37,0.03,2.59,0.17,3.65,0.42c1.06,0.25,1.87,0.64,2.43,1.17c0.56,0.53,0.65,1.17,0.28,1.92
		c-0.56,1.19-1.31,2.73-2.25,4.63c-0.94,1.9-1.87,3.95-2.81,6.13c-0.94,2.18-1.82,4.4-2.67,6.64c-0.84,2.25-1.48,4.3-1.92,6.18
		c-0.37,1.56-0.51,2.82-0.42,3.79c0.09,0.97,0.34,1.56,0.75,1.78c0.4,0.22,0.95,0.08,1.64-0.42c0.69-0.5,1.43-1.43,2.25-2.81
		c0.44-0.56,0.95-1.32,1.54-2.29c0.59-0.97,1.2-1.97,1.82-2.99c0.62-1.03,1.22-2.03,1.78-2.99c0.56-0.97,1.06-1.76,1.5-2.39
		c0.69-1.56,1.61-2.54,2.76-2.95c1.15-0.41,2.21-0.47,3.18-0.19c0.97,0.28,1.71,0.83,2.25,1.64c0.53,0.81,0.51,1.68-0.05,2.62
		c-1.12,1.87-2.07,3.52-2.85,4.96c-0.78,1.44-1.51,2.79-2.2,4.07c-0.69,1.28-1.39,2.54-2.11,3.79c-0.72,1.25-1.61,2.62-2.67,4.12
		c-0.94,1.31-2.06,2.68-3.37,4.12c-1.31,1.44-2.79,2.67-4.44,3.7c-1.65,1.03-3.42,1.7-5.29,2.01c-1.87,0.31-3.81,0-5.8-0.94
		c-1.56-0.87-2.73-2-3.51-3.37c-0.78-1.37-1.3-2.77-1.54-4.21c-0.94,1.19-2,2.36-3.18,3.51c-1.19,1.16-2.51,2.15-3.98,2.99
		c-1.47,0.84-3.04,1.43-4.73,1.78c-1.68,0.34-3.46,0.33-5.33-0.05c-1.56-0.44-2.88-1.2-3.98-2.29c-1.09-1.09-1.97-2.29-2.62-3.6
		c-0.65-1.31-1.12-2.65-1.4-4.02c-0.28-1.37-0.36-2.62-0.23-3.74c0.06-2.31,0.53-4.82,1.4-7.53c0.87-2.71,1.9-5.41,3.09-8.09
		c1.19-2.68,2.42-5.25,3.7-7.72c1.28-2.46,2.35-4.66,3.23-6.6C60.66,35,61.3,34.37,62.33,33.87z"/>
	<linearGradient id="SVGID_3_" gradientUnits="userSpaceOnUse" x1="89.5154" y1="3.628" x2="191.0837" y2="140.8533">
		<stop  offset="0" style="stop-color:#F299C1"/>
		<stop  offset="0.0774" style="stop-color:#F090C5"/>
		<stop  offset="0.2061" style="stop-color:#EB76D0"/>
		<stop  offset="0.3703" style="stop-color:#E24DE1"/>
		<stop  offset="0.5617" style="stop-color:#D714F9"/>
		<stop  offset="0.6045" style="stop-color:#D406FF"/>
		<stop  offset="0.9851" style="stop-color:#73236B"/>
	</linearGradient>
	<path class="st2" d="M98.21,51.09c2.06-5.11,4.05-9.97,5.99-14.55c1.93-4.58,3.8-8.78,5.61-12.59c1.81-3.8,3.49-7.19,5.05-10.15
		c1.56-2.96,2.99-5.44,4.3-7.44c0.37-0.44,1.37-0.8,2.99-1.08c1.62-0.28,3.35-0.42,5.19-0.42c1.84,0,3.54,0.14,5.1,0.42
		c1.56,0.28,2.46,0.76,2.71,1.45c-0.19,0.75-0.56,1.75-1.12,2.99c-0.56,1.25-1.25,2.68-2.06,4.3c-0.81,1.62-1.72,3.38-2.71,5.29
		c-1,1.9-2.06,3.88-3.18,5.94c-5.49,10.48-10.45,21.49-14.88,33.03c-0.5,1.12-0.87,2.36-1.12,3.7c-0.25,1.34-0.28,2.42-0.09,3.23
		c0.19,0.81,0.62,1.19,1.31,1.12c0.69-0.06,1.75-0.94,3.18-2.62c0.75-0.94,1.57-2.01,2.48-3.23c0.9-1.22,1.76-2.46,2.57-3.74
		c0.81-1.28,1.57-2.49,2.29-3.65c0.72-1.15,1.26-2.11,1.64-2.85c0.87-1.68,1.89-2.73,3.04-3.13c1.15-0.4,2.17-0.4,3.04,0
		c0.87,0.41,1.5,1.14,1.87,2.2c0.37,1.06,0.22,2.25-0.47,3.56c-1.93,3.56-3.54,6.41-4.82,8.56c-1.28,2.15-2.48,4.01-3.6,5.57
		c-0.94,1.37-1.92,2.79-2.95,4.26c-1.03,1.47-2.18,2.79-3.46,3.98c-1.28,1.19-2.7,2.17-4.26,2.95c-1.56,0.78-3.31,1.17-5.24,1.17
		c-3.24-0.44-5.66-1.68-7.25-3.74c-1.59-2.06-2.62-4.48-3.09-7.25c-0.47-2.78-0.48-5.71-0.05-8.8
		C96.68,56.47,97.34,53.65,98.21,51.09z"/>
	<linearGradient id="SVGID_4_" gradientUnits="userSpaceOnUse" x1="104.265" y1="-7.289" x2="205.8333" y2="129.9363">
		<stop  offset="0" style="stop-color:#F299C1"/>
		<stop  offset="0.0774" style="stop-color:#F090C5"/>
		<stop  offset="0.2061" style="stop-color:#EB76D0"/>
		<stop  offset="0.3703" style="stop-color:#E24DE1"/>
		<stop  offset="0.5617" style="stop-color:#D714F9"/>
		<stop  offset="0.6045" style="stop-color:#D406FF"/>
		<stop  offset="0.9851" style="stop-color:#73236B"/>
	</linearGradient>
	<path class="st3" d="M121.04,51.09c2.06-5.11,4.05-9.97,5.99-14.55c1.93-4.58,3.8-8.78,5.61-12.59c1.81-3.8,3.49-7.19,5.05-10.15
		c1.56-2.96,2.99-5.44,4.3-7.44c0.38-0.44,1.37-0.8,2.99-1.08c1.62-0.28,3.35-0.42,5.19-0.42c1.84,0,3.54,0.14,5.1,0.42
		c1.56,0.28,2.46,0.76,2.71,1.45c-0.19,0.75-0.56,1.75-1.12,2.99c-0.56,1.25-1.25,2.68-2.06,4.3c-0.81,1.62-1.72,3.38-2.71,5.29
		c-1,1.9-2.06,3.88-3.18,5.94c-5.49,10.48-10.45,21.49-14.88,33.03c-0.5,1.12-0.87,2.36-1.12,3.7c-0.25,1.34-0.28,2.42-0.09,3.23
		c0.19,0.81,0.62,1.19,1.31,1.12c0.69-0.06,1.75-0.94,3.18-2.62c0.75-0.94,1.58-2.01,2.48-3.23c0.9-1.22,1.76-2.46,2.57-3.74
		c0.81-1.28,1.57-2.49,2.29-3.65c0.72-1.15,1.26-2.11,1.64-2.85c0.87-1.68,1.89-2.73,3.04-3.13c1.15-0.4,2.17-0.4,3.04,0
		c0.87,0.41,1.5,1.14,1.87,2.2c0.37,1.06,0.22,2.25-0.47,3.56c-1.93,3.56-3.54,6.41-4.82,8.56c-1.28,2.15-2.48,4.01-3.6,5.57
		c-0.94,1.37-1.92,2.79-2.95,4.26c-1.03,1.47-2.18,2.79-3.46,3.98c-1.28,1.19-2.7,2.17-4.26,2.95c-1.56,0.78-3.31,1.17-5.24,1.17
		c-3.24-0.44-5.66-1.68-7.25-3.74c-1.59-2.06-2.62-4.48-3.09-7.25c-0.47-2.78-0.48-5.71-0.05-8.8
		C119.51,56.47,120.17,53.65,121.04,51.09z"/>
	<linearGradient id="SVGID_5_" gradientUnits="userSpaceOnUse" x1="112.8064" y1="-13.6109" x2="214.3747" y2="123.6144">
		<stop  offset="0" style="stop-color:#F299C1"/>
		<stop  offset="0.0774" style="stop-color:#F090C5"/>
		<stop  offset="0.2061" style="stop-color:#EB76D0"/>
		<stop  offset="0.3703" style="stop-color:#E24DE1"/>
		<stop  offset="0.5617" style="stop-color:#D714F9"/>
		<stop  offset="0.6045" style="stop-color:#D406FF"/>
		<stop  offset="0.9851" style="stop-color:#73236B"/>
	</linearGradient>
	<path class="st4" d="M141.25,70.89c-0.19-2.74,0.17-5.8,1.08-9.17c0.91-3.37,2.04-6.75,3.42-10.15c1.37-3.4,2.85-6.66,4.44-9.78
		c1.59-3.12,2.95-5.77,4.07-7.95c1.68-0.19,3.35-0.17,5.01,0.05c1.65,0.22,3.16,0.51,4.54,0.89c1.37,0.37,2.53,0.78,3.46,1.22
		c0.94,0.44,1.53,0.81,1.78,1.12c-0.94,1.12-2.03,2.73-3.28,4.82c-1.25,2.09-2.5,4.35-3.74,6.78c-1.25,2.43-2.4,4.9-3.46,7.39
		c-1.06,2.5-1.81,4.68-2.25,6.55c-0.37,1.44-0.53,2.51-0.47,3.23c0.06,0.72,0.28,1.12,0.65,1.22c0.37,0.09,0.87-0.08,1.5-0.51
		c0.62-0.44,1.34-1.09,2.15-1.96c1.56-1.62,3.15-3.62,4.77-5.99c1.62-2.37,3.02-4.62,4.21-6.74c1-1.81,2.09-2.93,3.28-3.37
		c1.18-0.44,2.21-0.44,3.09,0c0.87,0.44,1.48,1.19,1.83,2.25c0.34,1.06,0.2,2.15-0.42,3.27c-2.06,3.81-4.01,7.3-5.85,10.48
		c-1.84,3.18-3.73,5.91-5.66,8.19c-1.93,2.28-4.01,4.06-6.22,5.33c-2.22,1.28-4.73,1.92-7.53,1.92c-2.93,0-5.32-0.81-7.16-2.43
		C142.64,75.91,141.56,73.7,141.25,70.89z M163.76,31.01c-0.5-0.45-0.94-0.99-1.29-1.57c-1.82-2.96-1.48-7.16,0.96-9.64
		c2-2.04,5.31-2.66,7.94-1.56c3.13,1.31,4.14,4.41,3.26,7.58c-0.64,2.3-2,4.5-4.12,5.71c-1.65,0.94-3.76,1.17-5.48,0.34
		C164.57,31.65,164.14,31.36,163.76,31.01z"/>
	<linearGradient id="SVGID_6_" gradientUnits="userSpaceOnUse" x1="120.4282" y1="-19.2523" x2="221.9965" y2="117.973">
		<stop  offset="0" style="stop-color:#F299C1"/>
		<stop  offset="0.0774" style="stop-color:#F090C5"/>
		<stop  offset="0.2061" style="stop-color:#EB76D0"/>
		<stop  offset="0.3703" style="stop-color:#E24DE1"/>
		<stop  offset="0.5617" style="stop-color:#D714F9"/>
		<stop  offset="0.6045" style="stop-color:#D406FF"/>
		<stop  offset="0.9851" style="stop-color:#73236B"/>
	</linearGradient>
	<path class="st5" d="M191.4,34.71c1.37-0.56,3.04-1.09,5.01-1.59c1.97-0.5,3.93-0.76,5.9-0.8c1.96-0.03,3.77,0.28,5.43,0.94
		c1.65,0.66,2.85,1.86,3.6,3.6c1,3.18,1.15,6.55,0.47,10.11c-0.69,3.56-1.9,7.02-3.65,10.39c-1.75,3.37-3.88,6.55-6.41,9.54
		c-2.53,2.99-5.13,5.54-7.81,7.63c-2.68,2.09-5.29,3.6-7.81,4.54c-2.53,0.94-4.69,1.06-6.5,0.37c-0.81-0.25-1.54-0.42-2.2-0.51
		c-0.65-0.09-1.33-0.36-2.01-0.8c-0.44,2.06-0.81,4.18-1.12,6.36c-0.31,2.18-0.53,4.37-0.65,6.55c-0.13,2.18-0.09,4.35,0.09,6.5
		c0.19,2.15,0.56,4.19,1.12,6.13c-1.5,0-3.1-0.03-4.82-0.09c-1.72-0.06-3.37-0.27-4.96-0.61c-1.59-0.34-3.04-0.9-4.35-1.68
		c-1.31-0.78-2.28-1.89-2.9-3.32c-0.12-2.87,0.2-6.41,0.98-10.62c0.78-4.21,1.83-8.66,3.13-13.33c1.31-4.68,2.79-9.39,4.44-14.13
		c1.65-4.74,3.35-9.08,5.1-13.01c1.75-3.93,3.42-7.24,5.01-9.92c1.59-2.68,2.95-4.37,4.07-5.05c1.18-0.19,2.81-0.28,4.87-0.28
		c2.06,0,4.37,0.16,6.92,0.47c-0.13,0.25-0.28,0.67-0.47,1.26C191.68,33.95,191.53,34.4,191.4,34.71z M181.3,55.02
		c-0.62,1.37-1.2,3.03-1.73,4.96c-0.53,1.93-0.64,4.02-0.33,6.27c0.37,2.56,1.08,3.79,2.1,3.7c1.03-0.09,2.23-0.89,3.6-2.39
		c1.37-1.37,2.7-2.9,3.98-4.58c1.28-1.68,2.4-3.45,3.37-5.29c0.97-1.84,1.73-3.74,2.29-5.71c0.56-1.96,0.81-3.88,0.75-5.75
		c-0.06-1.18-0.27-2.09-0.61-2.71c-0.34-0.62-0.8-1.03-1.36-1.22c-0.56-0.19-1.16-0.19-1.78,0c-0.62,0.19-1.25,0.5-1.87,0.94
		c-1.06,0.69-2.03,1.54-2.9,2.57c-0.87,1.03-1.67,2.11-2.39,3.23c-0.72,1.12-1.34,2.22-1.87,3.28
		C182.03,53.37,181.61,54.27,181.3,55.02z"/>
</g>
</svg>
